<?xml version="1.0" encoding="UTF-8" standalone="no"?>
<!-- Created with Inkscape (http://www.inkscape.org/) -->

<svg
   xmlns:dc="http://purl.org/dc/elements/1.1/"
   xmlns:cc="http://creativecommons.org/ns#"
   xmlns:rdf="http://www.w3.org/1999/02/22-rdf-syntax-ns#"
   xmlns:svg="http://www.w3.org/2000/svg"
   xmlns="http://www.w3.org/2000/svg"
   xmlns:sodipodi="http://sodipodi.sourceforge.net/DTD/sodipodi-0.dtd"
   xmlns:inkscape="http://www.inkscape.org/namespaces/inkscape"
   width="210mm"
   height="297mm"
   viewBox="0 0 210 297"
   version="1.1"
   id="svg8"
   inkscape:version="0.92.2 (5c3e80d, 2017-08-06)"
   sodipodi:docname="break apart union.svg">
  <defs
     id="defs2" />
  <sodipodi:namedview
     id="base"
     pagecolor="#ffffff"
     bordercolor="#666666"
     borderopacity="1.0"
     inkscape:pageopacity="0.0"
     inkscape:pageshadow="2"
     inkscape:zoom="0.7"
     inkscape:cx="-542.45578"
     inkscape:cy="684.41723"
     inkscape:document-units="mm"
     inkscape:current-layer="layer1"
     showgrid="false" />
  <metadata
     id="metadata5">
    <rdf:RDF>
      <cc:Work
         rdf:about="">
        <dc:format>image/svg+xml</dc:format>
        <dc:type
           rdf:resource="http://purl.org/dc/dcmitype/StillImage" />
        <dc:title></dc:title>
      </cc:Work>
    </rdf:RDF>
  </metadata>
  <g
     inkscape:label="Layer 1"
     inkscape:groupmode="layer"
     id="layer1">
    <path
       style="color:#000000;font-style:normal;font-variant:normal;font-weight:normal;font-stretch:normal;font-size:medium;line-height:normal;font-family:sans-serif;font-variant-ligatures:normal;font-variant-position:normal;font-variant-caps:normal;font-variant-numeric:normal;font-variant-alternates:normal;font-feature-settings:normal;text-indent:0;text-align:start;text-decoration:none;text-decoration-line:none;text-decoration-style:solid;text-decoration-color:#000000;letter-spacing:normal;word-spacing:normal;text-transform:none;writing-mode:lr-tb;direction:ltr;text-orientation:mixed;dominant-baseline:auto;baseline-shift:baseline;text-anchor:start;white-space:normal;shape-padding:0;clip-rule:nonzero;display:inline;overflow:visible;visibility:visible;opacity:0.66799999;isolation:auto;mix-blend-mode:normal;color-interpolation:sRGB;color-interpolation-filters:linearRGB;solid-color:#000000;solid-opacity:1;vector-effect:none;fill:#007a80;fill-opacity:1;fill-rule:nonzero;stroke:none;stroke-width:41.67684937;stroke-linecap:round;stroke-linejoin:round;stroke-miterlimit:4;stroke-dasharray:none;stroke-dashoffset:0;stroke-opacity:1;color-rendering:auto;image-rendering:auto;shape-rendering:auto;text-rendering:auto;enable-background:accumulate"
       d="M -888.57227 135.12891 C -960.11558 135.12979 -1018.819 193.83352 -1018.8184 265.37695 L -1018.8184 265.40234 A 20.840509 20.840509 0 0 0 -1018.8184 265.42773 C -1018.7919 287.90934 -1012.8263 309.60837 -1002.127 328.70898 C -1027.1105 356.3953 -1041.6202 392.6764 -1041.6758 431.0332 A 20.840509 20.840509 0 0 0 -1041.6758 431.04102 L -1041.6758 431.13867 C -1041.6569 449.73569 -1038.0757 467.98649 -1031.5547 485.1582 C -1056.3056 516.79595 -1070.1804 555.96808 -1070.248 596.73633 A 20.840509 20.840509 0 0 0 -1070.248 596.76953 L -1070.248 596.80469 C -1070.248 696.71843 -988.48596 778.48047 -888.57227 778.48047 C -788.65856 778.48047 -706.89645 696.71846 -706.89648 596.80469 L -706.89648 596.77734 A 20.840509 20.840509 0 0 0 -706.89648 596.75 C -706.95053 555.96183 -720.82586 516.7666 -745.58789 485.11328 C -739.07304 467.95801 -735.49148 449.72611 -735.4668 431.14648 A 20.840509 20.840509 0 0 0 -735.4668 431.14453 C -735.46672 431.1143 -735.46676 431.08259 -735.4668 431.05273 L -735.4668 431.05078 C -735.50535 392.69614 -749.9949 356.40723 -774.96484 328.70898 C -764.27611 309.59256 -758.33008 287.88047 -758.32422 265.39062 A 20.840509 20.840509 0 0 0 -758.32422 265.38477 L -758.32422 265.37891 C -758.32346 193.83448 -817.02781 135.13017 -888.57227 135.13086 L -888.57227 135.12891 z M -888.57227 155.9668 C -828.39289 155.96622 -779.1615 205.1976 -779.16211 265.37695 A 20.840509 20.840509 0 0 1 -779.16211 265.38281 C -779.16842 289.53904 -787.25177 312.70692 -801.59375 331.55859 C -773.181 356.37308 -756.34248 392.54214 -756.30469 431.07227 A 20.840509 20.840509 0 0 1 -756.30469 431.11914 C -756.33133 451.15309 -760.9601 470.82075 -769.64844 488.70898 C -742.87313 518.11715 -727.78766 556.6103 -727.73438 596.77734 A 20.840509 20.840509 0 0 1 -727.73438 596.80273 C -727.73434 685.38454 -799.9905 757.64062 -888.57227 757.64062 C -977.15406 757.64062 -1049.4102 685.38454 -1049.4102 596.80273 A 20.840509 20.840509 0 0 1 -1049.4102 596.76953 C -1049.3436 556.61972 -1034.2589 518.14696 -1007.4941 488.75195 C -1016.19 470.84894 -1020.819 451.16218 -1020.8379 431.11133 A 20.840509 20.840509 0 0 1 -1020.8379 431.0625 C -1020.7821 392.52477 -1003.9178 356.35619 -975.48438 331.55664 C -989.84438 312.71897 -997.95023 289.55935 -997.98047 265.40234 A 20.840509 20.840509 0 0 1 -997.98047 265.37695 C -997.98104 205.19853 -948.75069 155.96755 -888.57227 155.9668 z "
       transform="scale(0.26458333)"
       id="path865" />
    <path
       style="opacity:0.66799999;fill:#002580;fill-opacity:1;fill-rule:nonzero;stroke:none;stroke-width:34.11779571;stroke-linecap:round;stroke-linejoin:round;stroke-miterlimit:4;stroke-dasharray:none;stroke-dashoffset:0;stroke-opacity:1"
       d="M -888.57227 176.80469 A 88.571424 88.571424 0 0 0 -977.14258 265.37695 A 88.571424 88.571424 0 0 0 -943.82812 334.49023 A 111.42857 111.42857 0 0 0 -1000 431.0918 A 111.42857 111.42857 0 0 0 -981.56055 492.37891 A 139.99999 139.99999 0 0 0 -1028.5723 596.80469 A 139.99999 139.99999 0 0 0 -888.57227 736.80469 A 139.99999 139.99999 0 0 0 -748.57227 596.80469 A 139.99999 139.99999 0 0 0 -795.58008 492.33594 A 111.42857 111.42857 0 0 0 -777.14258 431.0918 A 111.42857 111.42857 0 0 0 -833.21094 334.49219 A 88.571424 88.571424 0 0 0 -800 265.37695 A 88.571424 88.571424 0 0 0 -888.57227 176.80469 z "
       id="path815"
       transform="scale(0.26458333)" />
    <path
       style="color:#000000;font-style:normal;font-variant:normal;font-weight:normal;font-stretch:normal;font-size:medium;line-height:normal;font-family:sans-serif;font-variant-ligatures:normal;font-variant-position:normal;font-variant-caps:normal;font-variant-numeric:normal;font-variant-alternates:normal;font-feature-settings:normal;text-indent:0;text-align:start;text-decoration:none;text-decoration-line:none;text-decoration-style:solid;text-decoration-color:#000000;letter-spacing:normal;word-spacing:normal;text-transform:none;writing-mode:lr-tb;direction:ltr;text-orientation:mixed;dominant-baseline:auto;baseline-shift:baseline;text-anchor:start;white-space:normal;shape-padding:0;clip-rule:nonzero;display:inline;overflow:visible;visibility:visible;opacity:0.66799999;isolation:auto;mix-blend-mode:normal;color-interpolation:sRGB;color-interpolation-filters:linearRGB;solid-color:#000000;solid-opacity:1;vector-effect:none;fill:#008080;fill-opacity:0.6788618;fill-rule:nonzero;stroke:none;stroke-width:9.52700043;stroke-linecap:round;stroke-linejoin:round;stroke-miterlimit:4;stroke-dasharray:none;stroke-dashoffset:0;stroke-opacity:1;color-rendering:auto;image-rendering:auto;shape-rendering:auto;text-rendering:auto;enable-background:accumulate"
       d="M -80.130859,6.4863281 A 4.7639766,4.7639766 0 0 0 -84.894531,11.25 v 108.10156 a 4.7639766,4.7639766 0 0 0 4.763672,4.76367 H 27.970703 a 4.7639766,4.7639766 0 0 0 4.763672,-4.76367 V 11.25 A 4.7639766,4.7639766 0 0 0 27.970703,6.4863281 Z"
       id="path833" />
    <path
       style="color:#000000;font-style:normal;font-variant:normal;font-weight:normal;font-stretch:normal;font-size:medium;line-height:normal;font-family:sans-serif;font-variant-ligatures:normal;font-variant-position:normal;font-variant-caps:normal;font-variant-numeric:normal;font-variant-alternates:normal;font-feature-settings:normal;text-indent:0;text-align:start;text-decoration:none;text-decoration-line:none;text-decoration-style:solid;text-decoration-color:#000000;letter-spacing:normal;word-spacing:normal;text-transform:none;writing-mode:lr-tb;direction:ltr;text-orientation:mixed;dominant-baseline:auto;baseline-shift:baseline;text-anchor:start;white-space:normal;shape-padding:0;clip-rule:nonzero;display:inline;overflow:visible;visibility:visible;opacity:0.66799999;isolation:auto;mix-blend-mode:normal;color-interpolation:sRGB;color-interpolation-filters:linearRGB;solid-color:#000000;solid-opacity:1;vector-effect:none;fill:#008080;fill-opacity:0.6788618;fill-rule:nonzero;stroke:none;stroke-width:9.52700043;stroke-linecap:round;stroke-linejoin:round;stroke-miterlimit:4;stroke-dasharray:none;stroke-dashoffset:0;stroke-opacity:1;color-rendering:auto;image-rendering:auto;shape-rendering:auto;text-rendering:auto;enable-background:accumulate"
       d="M -75.367188,16.013672 H 23.207031 V 114.58789 H -75.367188 Z"
       id="rect826" />
  </g>
</svg>
